<svg width="56" height="56" viewBox="0 0 56 56" fill="none" xmlns="http://www.w3.org/2000/svg">
<path d="M28 0L30.4311 14.2127L37.5766 1.68861L35 15.8756L45.9981 6.55076L38.7246 19.001L52.2487 14L41.1557 23.2117L55.5746 23.1379L42 28L55.5746 32.8621L41.1557 32.7883L52.2487 42L38.7246 36.999L45.9981 49.4492L35 40.1244L37.5766 54.3114L30.4311 41.7873L28 56L25.5689 41.7873L18.4234 54.3114L21 40.1244L10.0019 49.4492L17.2754 36.999L3.75126 42L14.8443 32.7883L0.425354 32.8621L14 28L0.425354 23.1379L14.8443 23.2117L3.75126 14L17.2754 19.001L10.0019 6.55076L21 15.8756L18.4234 1.68861L25.5689 14.2127L28 0Z" fill="#ECE8D9"/>
</svg>
