<svg width="28" height="28" viewBox="0 0 28 28" fill="none" xmlns="http://www.w3.org/2000/svg">
<path d="M14 0L14.8509 9.1744L18.7883 0.8443L16.45 9.7565L22.999 3.27538L17.7536 10.8503L26.1244 7L18.6045 12.3241L27.7873 11.5689L18.9 14L27.7873 16.4311L18.6045 15.6759L26.1244 21L17.7536 17.1497L22.999 24.7246L16.45 18.2435L18.7883 27.1557L14.8509 18.8256L14 28L13.1491 18.8256L9.2117 27.1557L11.55 18.2435L5.001 24.7246L10.2464 17.1497L1.87564 21L9.3955 15.6759L0.212692 16.4311L9.1 14L0.212692 11.5689L9.3955 12.3241L1.87564 7L10.2464 10.8503L5.001 3.27538L11.55 9.7565L9.2117 0.8443L13.1491 9.1744L14 0Z" fill="#1C3F3A"/>
</svg>
